<svg xmlns="http://www.w3.org/2000/svg" viewBox="0 0 274.64 269.79"><defs><style>.cls-1{fill:#143d59;}.cls-2{fill:#fcc729;}</style></defs><g id="Layer_2" data-name="Layer 2"><g id="Icon_2" data-name="Icon 2"><path class="cls-1" d="M215.22,104.09a11.49,11.49,0,0,0-9,0L59.48,176.57c-2.46,1.22-4.48,0-4.48-2.78V30.3a8.79,8.79,0,0,0-4.49-7.2L4.49.46C2-.75,0,.51,0,3.26V266.54c0,2.75,2,4,4.48,2.78L272.79,136.83c2.47-1.22,2.47-3.21,0-4.42Z"/><path class="cls-2" d="M184,93.35c2.46-1.22,2.46-3.21,0-4.42L78,36.79c-2.47-1.22-4.49,0-4.49,2.79V142.92c0,2.75,2,4,4.48,2.79Z"/></g></g></svg>